<svg width="50" height="50" viewBox="0 0 50 50" fill="none" xmlns="http://www.w3.org/2000/svg">
<path fill-rule="evenodd" clip-rule="evenodd" d="M45.5379 14.6371L43.8986 16.2735C40.3467 13.1831 35.7924 11.4547 31.057 11.4547C27.8689 11.4547 24.6824 12.2729 21.9501 13.7269L28.8712 6.81826C29.4177 7.18133 30.0546 7.36372 30.6933 7.36372C31.6035 7.36372 32.5154 7.00065 33.2428 6.2728C34.6995 4.8188 34.6995 2.54492 33.2428 1.09092C32.5137 0.363072 31.6035 0 30.6933 0C29.7831 0 28.8712 0.363072 28.1438 1.09092C26.9604 2.36423 26.7777 4.1813 27.5973 5.54495L18.8542 14.2723L17.2148 12.6359L12.7527 17.09L14.3921 18.7263L5.46619 27.6361C4.91974 27.273 4.28279 27.0906 3.64413 27.0906C2.73395 27.0906 1.82206 27.4537 1.09461 28.1816C-0.36202 29.6356 -0.36202 31.9095 1.09461 33.3634C1.82377 33.9993 2.73395 34.364 3.64413 34.364C4.5543 34.364 5.46619 34.001 6.19365 33.2731C7.37705 32.0918 7.55977 30.2731 6.7401 28.8191L13.6612 21.9105C10.0188 28.9111 10.8385 37.6385 16.2107 43.8192L14.5714 45.546L19.1257 50L23.5878 45.546L19.1257 41.0919L17.5768 42.638C12.2951 36.4555 12.0219 27.5475 16.4839 21.0019L17.2131 21.7298L21.7674 17.2758L20.9477 16.5479C23.8627 14.4564 27.4146 13.3655 31.057 13.3655C35.3381 13.3655 39.3443 14.9115 42.623 17.6388L40.9836 19.1849L45.5379 23.6389L50 19.1849L45.5379 14.6388V14.6371ZM21.0383 45.5458L19.1257 47.4549L17.2131 45.5458L19.1257 43.6367L21.0383 45.5458V45.5458ZM29.4177 2.45464C29.7814 2.09157 30.2374 1.90918 30.6933 1.90918C31.1493 1.90918 31.6035 2.09157 31.9689 2.45464C32.6981 3.18249 32.6981 4.27341 31.9689 4.99956C31.6052 5.36263 31.1493 5.54502 30.6933 5.54502C30.2374 5.54502 29.7831 5.36263 29.4177 4.99956C28.6885 4.36375 28.6885 3.18078 29.4177 2.45464V2.45464ZM4.91801 31.9998C4.55428 32.3629 4.09834 32.5453 3.6424 32.5453C3.18645 32.5453 2.73222 32.3629 2.36678 31.9998C2.00305 31.7271 1.82033 31.2719 1.82033 30.7265C1.82033 30.2714 2.00305 29.818 2.36678 29.4532C2.73051 29.0884 3.18645 28.9077 3.6424 28.9077C4.09834 28.9077 4.55257 29.0901 4.91801 29.4532C5.64718 30.181 5.64718 31.3623 4.91801 31.9981V31.9998ZM17.1226 19.1815L15.2101 17.2724L17.1226 15.3633L19.0352 17.2724L17.1226 19.1815V19.1815ZM45.5379 21.0904L43.6253 19.1813L45.5379 17.2722L47.4505 19.1813L45.5379 21.0904V21.0904Z" fill="#333333"/>
</svg>
